<svg xmlns="http://www.w3.org/2000/svg" version="1.1" xmlns:xlink="http://www.w3.org/1999/xlink" xmlns:svgjs="http://svgjs.dev/svgjs" width="1500" height="1500" viewBox="0 0 1500 1500"><rect width="1500" height="1500" fill="#ffffff"></rect><g transform="matrix(0.6666666666666666,0,0,0.6666666666666666,249.39393939393938,438.5856950067477)"><svg viewBox="0 0 396 247" data-background-color="#ffffff" preserveAspectRatio="xMidYMid meet" height="935" width="1500" xmlns="http://www.w3.org/2000/svg" xmlns:xlink="http://www.w3.org/1999/xlink"><g id="tight-bounds" transform="matrix(1,0,0,1,0.2400000000000091,-0.09999999999999432)"><svg viewBox="0 0 395.52 247.2" height="247.2" width="395.52"><g><svg></svg></g><g><svg viewBox="0 0 395.52 247.2" height="247.2" width="395.52"><g transform="matrix(1,0,0,1,75.54432,78.53788206171217)"><svg viewBox="0 0 244.43135999999998 90.12423587657565" height="90.12423587657565" width="244.43135999999998"><g><svg viewBox="0 0 244.43135999999998 90.12423587657565" height="90.12423587657565" width="244.43135999999998"><g><svg viewBox="0 0 244.43135999999998 90.12423587657565" height="90.12423587657565" width="244.43135999999998"><g id="textblocktransform"><svg viewBox="0 0 244.43135999999998 90.12423587657565" height="90.12423587657565" width="244.43135999999998" id="textblock"><g><svg viewBox="0 0 244.43135999999998 58.79792164948453" height="58.79792164948453" width="244.43135999999998"><g transform="matrix(1,0,0,1,0,0)"><svg width="244.43135999999998" viewBox="1.7999999999999998 -28 116.39 28" height="58.79792164948453" data-palette-color="#000000"><path d="M18.2-6Q18.2-4.85 18-4L18-4Q18.2-3.2 18.2-2L18.2-2Q18.2-0.85 18 0L18 0 14 0Q13.8-0.85 13.8-2L13.8-2Q13.8-3.2 14-4L14-4Q13.8-4.85 13.8-6L13.8-6Q13.8-7.2 14-8L14-8 6-8Q6.2-7.2 6.2-6L6.2-6Q6.2-4.85 6-4L6-4Q6.2-3.2 6.2-2L6.2-2Q6.2-0.85 6 0L6 0 2 0Q1.8-0.85 1.8-2L1.8-2Q1.8-3.2 2-4L2-4Q1.8-4.85 1.8-6L1.8-6Q1.8-7.2 2-8L2-8 3.5-8Q3.3-8.85 3.3-10L3.3-10Q3.3-11.2 3.5-12L3.5-12Q3.3-12.85 3.3-14L3.3-14Q3.3-15.2 3.5-16L3.5-16 4.5-16Q4.3-16.85 4.3-18L4.3-18Q4.3-19.2 4.5-20L4.5-20 6-20Q5.8-20.85 5.8-22L5.8-22Q5.8-23.2 6-24L6-24 7-24Q6.8-24.85 6.8-26L6.8-26Q6.8-27.2 7-28L7-28 13-28Q13.2-27.2 13.2-26L13.2-26Q13.2-24.85 13-24L13-24 14-24Q14.2-23.2 14.2-22L14.2-22Q14.2-20.85 14-20L14-20 15.5-20Q15.7-19.2 15.7-18L15.7-18Q15.7-16.85 15.5-16L15.5-16 16.5-16Q16.7-15.2 16.7-14L16.7-14Q16.7-12.85 16.5-12L16.5-12Q16.7-11.2 16.7-10L16.7-10Q16.7-8.85 16.5-8L16.5-8 18-8Q18.2-7.2 18.2-6L18.2-6ZM12.5-12Q12.3-12.85 12.3-14L12.3-14Q12.3-15.2 12.5-16L12.5-16 11.5-16Q11.3-16.85 11.3-18L11.3-18Q11.3-19.2 11.5-20L11.5-20 8.5-20Q8.7-19.2 8.7-18L8.7-18Q8.7-16.85 8.5-16L8.5-16 7.5-16Q7.7-15.2 7.7-14L7.7-14Q7.7-12.85 7.5-12L7.5-12 12.5-12ZM36.5-4L38-4Q38.2-3.2 38.2-2L38.2-2Q38.2-0.85 38 0L38 0 34 0Q33.8-0.85 33.8-2L33.8-2Q33.8-3.2 34-4L34-4 32.5-4Q32.3-4.85 32.3-6L32.3-6Q32.3-7.2 32.5-8L32.5-8 31-8Q30.8-8.85 30.8-10L30.8-10Q30.8-11.2 31-12L31-12 26-12Q26.2-11.2 26.2-10L26.2-10Q26.2-8.85 26-8L26-8Q26.2-7.2 26.2-6L26.2-6Q26.2-4.85 26-4L26-4Q26.2-3.2 26.2-2L26.2-2Q26.2-0.85 26 0L26 0 22 0Q21.8-0.85 21.8-2L21.8-2Q21.8-3.2 22-4L22-4Q21.8-4.85 21.8-6L21.8-6Q21.8-7.2 22-8L22-8Q21.8-8.85 21.8-10L21.8-10Q21.8-11.2 22-12L22-12Q21.8-12.85 21.8-14L21.8-14Q21.8-15.2 22-16L22-16Q21.8-16.85 21.8-18L21.8-18Q21.8-19.2 22-20L22-20Q21.8-20.85 21.8-22L21.8-22Q21.8-23.2 22-24L22-24Q21.8-24.85 21.8-26L21.8-26Q21.8-27.2 22-28L22-28 36-28Q36.2-27.2 36.2-26L36.2-26Q36.2-24.85 36-24L36-24 38-24Q38.2-23.2 38.2-22L38.2-22Q38.2-20.85 38-20L38-20 37-20Q37.2-19.2 37.2-18L37.2-18Q37.2-16.85 37-16L37-16 34-16Q34.2-15.2 34.2-14L34.2-14Q34.2-12.85 34-12L34-12 35-12Q35.2-11.2 35.2-10L35.2-10Q35.2-8.85 35-8L35-8 36.5-8Q36.7-7.2 36.7-6L36.7-6Q36.7-4.85 36.5-4L36.5-4ZM33-16Q32.8-16.85 32.8-18L32.8-18Q32.8-19.2 33-20L33-20Q32.8-20.85 32.8-22L32.8-22Q32.8-23.2 33-24L33-24 26-24Q26.2-23.2 26.2-22L26.2-22Q26.2-20.85 26-20L26-20Q26.2-19.2 26.2-18L26.2-18Q26.2-16.85 26-16L26-16 33-16ZM58.2-26Q58.2-24.85 58-24L58-24 52-24Q52.2-23.2 52.2-22L52.2-22Q52.2-20.85 52-20L52-20Q52.2-19.2 52.2-18L52.2-18Q52.2-16.85 52-16L52-16Q52.2-15.2 52.2-14L52.2-14Q52.2-12.85 52-12L52-12Q52.2-11.2 52.2-10L52.2-10Q52.2-8.85 52-8L52-8Q52.2-7.2 52.2-6L52.2-6Q52.2-4.85 52-4L52-4Q52.2-3.2 52.2-2L52.2-2Q52.2-0.85 52 0L52 0 48 0Q47.8-0.85 47.8-2L47.8-2Q47.8-3.2 48-4L48-4Q47.8-4.85 47.8-6L47.8-6Q47.8-7.2 48-8L48-8Q47.8-8.85 47.8-10L47.8-10Q47.8-11.2 48-12L48-12Q47.8-12.85 47.8-14L47.8-14Q47.8-15.2 48-16L48-16Q47.8-16.85 47.8-18L47.8-18Q47.8-19.2 48-20L48-20Q47.8-20.85 47.8-22L47.8-22Q47.8-23.2 48-24L48-24 42-24Q41.8-24.85 41.8-26L41.8-26Q41.8-27.2 42-28L42-28 58-28Q58.2-27.2 58.2-26L58.2-26ZM77.99-24Q78.19-23.2 78.19-22L78.19-22Q78.19-20.85 77.99-20L77.99-20Q78.19-19.2 78.19-18L78.19-18Q78.19-16.85 77.99-16L77.99-16Q78.19-15.2 78.19-14L78.19-14Q78.19-12.85 77.99-12L77.99-12Q78.19-11.2 78.19-10L78.19-10Q78.19-8.85 77.99-8L77.99-8Q78.19-7.2 78.19-6L78.19-6Q78.19-4.85 77.99-4L77.99-4Q78.19-3.2 78.19-2L78.19-2Q78.19-0.85 77.99 0L77.99 0 73.99 0Q73.79-0.85 73.79-2L73.79-2Q73.79-3.2 73.99-4L73.99-4Q73.79-4.85 73.79-6L73.79-6Q73.79-7.2 73.99-8L73.99-8Q73.79-8.85 73.79-10L73.79-10Q73.79-11.2 73.99-12L73.99-12 65.99-12Q66.19-11.2 66.19-10L66.19-10Q66.19-8.85 65.99-8L65.99-8Q66.19-7.2 66.19-6L66.19-6Q66.19-4.85 65.99-4L65.99-4Q66.19-3.2 66.19-2L66.19-2Q66.19-0.85 65.99 0L65.99 0 61.99 0Q61.79-0.85 61.79-2L61.79-2Q61.79-3.2 61.99-4L61.99-4Q61.79-4.85 61.79-6L61.79-6Q61.79-7.2 61.99-8L61.99-8Q61.79-8.85 61.79-10L61.79-10Q61.79-11.2 61.99-12L61.99-12Q61.79-12.85 61.79-14L61.79-14Q61.79-15.2 61.99-16L61.99-16Q61.79-16.85 61.79-18L61.79-18Q61.79-19.2 61.99-20L61.99-20Q61.79-20.85 61.79-22L61.79-22Q61.79-23.2 61.99-24L61.99-24Q61.79-24.85 61.79-26L61.79-26Q61.79-27.2 61.99-28L61.99-28 65.99-28Q66.19-27.2 66.19-26L66.19-26Q66.19-24.85 65.99-24L65.99-24Q66.19-23.2 66.19-22L66.19-22Q66.19-20.85 65.99-20L65.99-20Q66.19-19.2 66.19-18L66.19-18Q66.19-16.85 65.99-16L65.99-16 73.99-16Q73.79-16.85 73.79-18L73.79-18Q73.79-19.2 73.99-20L73.99-20Q73.79-20.85 73.79-22L73.79-22Q73.79-23.2 73.99-24L73.99-24Q73.79-24.85 73.79-26L73.79-26Q73.79-27.2 73.99-28L73.99-28 77.99-28Q78.19-27.2 78.19-26L78.19-26Q78.19-24.85 77.99-24L77.99-24ZM97.99-24Q98.19-23.2 98.19-22L98.19-22Q98.19-20.85 97.99-20L97.99-20Q98.19-19.2 98.19-18L98.19-18Q98.19-16.85 97.99-16L97.99-16Q98.19-15.2 98.19-14L98.19-14Q98.19-12.85 97.99-12L97.99-12Q98.19-11.2 98.19-10L98.19-10Q98.19-8.85 97.99-8L97.99-8Q98.19-7.2 98.19-6L98.19-6Q98.19-4.85 97.99-4L97.99-4 95.99-4Q96.19-3.2 96.19-2L96.19-2Q96.19-0.85 95.99 0L95.99 0 83.99 0Q83.79-0.85 83.79-2L83.79-2Q83.79-3.2 83.99-4L83.99-4 81.99-4Q81.79-4.85 81.79-6L81.79-6Q81.79-7.2 81.99-8L81.99-8Q81.79-8.85 81.79-10L81.79-10Q81.79-11.2 81.99-12L81.99-12Q81.79-12.85 81.79-14L81.79-14Q81.79-15.2 81.99-16L81.99-16Q81.79-16.85 81.79-18L81.79-18Q81.79-19.2 81.99-20L81.99-20Q81.79-20.85 81.79-22L81.79-22Q81.79-23.2 81.99-24L81.99-24Q81.79-24.85 81.79-26L81.79-26Q81.79-27.2 81.99-28L81.99-28 85.99-28Q86.19-27.2 86.19-26L86.19-26Q86.19-24.85 85.99-24L85.99-24Q86.19-23.2 86.19-22L86.19-22Q86.19-20.85 85.99-20L85.99-20Q86.19-19.2 86.19-18L86.19-18Q86.19-16.85 85.99-16L85.99-16Q86.19-15.2 86.19-14L86.19-14Q86.19-12.85 85.99-12L85.99-12Q86.19-11.2 86.19-10L86.19-10Q86.19-8.85 85.99-8L85.99-8Q86.19-7.2 86.19-6L86.19-6Q86.19-4.85 85.99-4L85.99-4 93.99-4Q93.79-4.85 93.79-6L93.79-6Q93.79-7.2 93.99-8L93.99-8Q93.79-8.85 93.79-10L93.79-10Q93.79-11.2 93.99-12L93.99-12Q93.79-12.85 93.79-14L93.79-14Q93.79-15.2 93.99-16L93.99-16Q93.79-16.85 93.79-18L93.79-18Q93.79-19.2 93.99-20L93.99-20Q93.79-20.85 93.79-22L93.79-22Q93.79-23.2 93.99-24L93.99-24Q93.79-24.85 93.79-26L93.79-26Q93.79-27.2 93.99-28L93.99-28 97.99-28Q98.19-27.2 98.19-26L98.19-26Q98.19-24.85 97.99-24L97.99-24ZM118.19-18Q118.19-16.85 117.99-16L117.99-16 115.99-16Q116.19-15.2 116.19-14L116.19-14Q116.19-12.85 115.99-12L115.99-12 117.99-12Q118.19-11.2 118.19-10L118.19-10Q118.19-8.85 117.99-8L117.99-8Q118.19-7.2 118.19-6L118.19-6Q118.19-4.85 117.99-4L117.99-4 115.99-4Q116.19-3.2 116.19-2L116.19-2Q116.19-0.85 115.99 0L115.99 0 101.99 0Q101.79-0.85 101.79-2L101.79-2Q101.79-3.2 101.99-4L101.99-4Q101.79-4.85 101.79-6L101.79-6Q101.79-7.2 101.99-8L101.99-8Q101.79-8.85 101.79-10L101.79-10Q101.79-11.2 101.99-12L101.99-12Q101.79-12.85 101.79-14L101.79-14Q101.79-15.2 101.99-16L101.99-16Q101.79-16.85 101.79-18L101.79-18Q101.79-19.2 101.99-20L101.99-20Q101.79-20.85 101.79-22L101.79-22Q101.79-23.2 101.99-24L101.99-24Q101.79-24.85 101.79-26L101.79-26Q101.79-27.2 101.99-28L101.99-28 115.99-28Q116.19-27.2 116.19-26L116.19-26Q116.19-24.85 115.99-24L115.99-24 117.99-24Q118.19-23.2 118.19-22L118.19-22Q118.19-20.85 117.99-20L117.99-20Q118.19-19.2 118.19-18L118.19-18ZM113.99-16Q113.79-16.85 113.79-18L113.79-18Q113.79-19.2 113.99-20L113.99-20Q113.79-20.85 113.79-22L113.79-22Q113.79-23.2 113.99-24L113.99-24 105.99-24Q106.19-23.2 106.19-22L106.19-22Q106.19-20.85 105.99-20L105.99-20Q106.19-19.2 106.19-18L106.19-18Q106.19-16.85 105.99-16L105.99-16 113.99-16ZM113.99-8Q113.79-8.85 113.79-10L113.79-10Q113.79-11.2 113.99-12L113.99-12 105.99-12Q106.19-11.2 106.19-10L106.19-10Q106.19-8.85 105.99-8L105.99-8Q106.19-7.2 106.19-6L106.19-6Q106.19-4.85 105.99-4L105.99-4 113.99-4Q113.79-4.85 113.79-6L113.79-6Q113.79-7.2 113.99-8L113.99-8Z" opacity="1" transform="matrix(1,0,0,1,0,0)" fill="#000000" class="wordmark-text-0" data-fill-palette-color="primary" id="text-0"></path></svg></g></svg></g><g transform="matrix(1,0,0,1,0,72.67869980080823)"><svg viewBox="0 0 164.86895231999998 17.445536075767414" height="17.445536075767414" width="164.86895231999998"><g transform="matrix(1,0,0,1,0,0)"><svg width="164.86895231999998" viewBox="-0.1 -39.65 477.19 50.5" height="17.445536075767414" data-palette-color="#000000"><path d="M24.95 0L18.5 0 16.8-8.1 7.9-8.1 6.25 0-0.1 0 8.6-34.55 16.3-34.55 24.95 0ZM12.35-29.7L8.9-12.9 15.85-12.9 12.35-29.7ZM39.35-27.1Q40.5-27.1 41.4-26.75L41.4-26.75 40.4-20.85Q39.4-21.1 38.55-21.1L38.55-21.1Q36.65-21.1 35.55-19.45 34.45-17.8 33.85-14.55L33.85-14.55 33.85 0 27.7 0 27.7-26.45 33.05-26.45 33.5-21.85Q35.35-27.1 39.35-27.1L39.35-27.1ZM55.4-5L57.55-1.2Q55.1 0.75 51.8 0.75L51.8 0.75Q48.35 0.75 46.55-1.23 44.75-3.2 44.75-6.6L44.75-6.6 44.75-22 41.65-22 41.65-26.45 44.75-26.45 44.75-32.3 50.9-33.05 50.9-26.45 55.9-26.45 55.3-22 50.9-22 50.9-6.6Q50.9-4.2 52.95-4.2L52.95-4.2Q53.6-4.2 54.1-4.38 54.6-4.55 55.4-5L55.4-5ZM82.14-26.45L87.84-26.45 83.29 0 75.79 0 72.84-20.85 69.94 0 62.49 0 57.84-26.45 63.79-26.45 66.49-4.6 69.84-26.45 76.09-26.45 79.29-4.6 82.14-26.45ZM100.74-27.15Q105.74-27.15 108.52-23.65 111.29-20.15 111.29-13.25L111.29-13.25Q111.29-6.65 108.49-2.95 105.69 0.75 100.74 0.75L100.74 0.75Q95.79 0.75 92.99-2.88 90.19-6.5 90.19-13.25L90.19-13.25Q90.19-19.95 92.99-23.55 95.79-27.15 100.74-27.15L100.74-27.15ZM100.74-22.5Q98.59-22.5 97.59-20.38 96.59-18.25 96.59-13.25L96.59-13.25Q96.59-8.2 97.59-6.08 98.59-3.95 100.74-3.95L100.74-3.95Q102.89-3.95 103.89-6.08 104.89-8.2 104.89-13.25L104.89-13.25Q104.89-18.3 103.89-20.4 102.89-22.5 100.74-22.5L100.74-22.5ZM127.49-27.1Q128.64-27.1 129.54-26.75L129.54-26.75 128.54-20.85Q127.54-21.1 126.69-21.1L126.69-21.1Q124.79-21.1 123.69-19.45 122.59-17.8 121.99-14.55L121.99-14.55 121.99 0 115.84 0 115.84-26.45 121.19-26.45 121.64-21.85Q123.49-27.1 127.49-27.1L127.49-27.1ZM132.39-37.05L138.54-37.7 138.54 0 132.39 0 132.39-37.05ZM145.89-26.45L151.89-26.45 144.89-14.75 152.49 0 145.89 0 138.79-14.45 145.89-26.45ZM172.23-27.15Q176.93-27.15 180.18-24.05L180.18-24.05 177.83-20.7Q176.43-21.7 175.18-22.2 173.93-22.7 172.63-22.7L172.63-22.7Q171.18-22.7 170.36-21.93 169.53-21.15 169.53-19.8L169.53-19.8Q169.53-18.45 170.46-17.63 171.38-16.8 174.18-15.7L174.18-15.7Q177.63-14.35 179.28-12.5 180.93-10.65 180.93-7.55L180.93-7.55Q180.93-3.7 178.23-1.48 175.53 0.75 171.38 0.75L171.38 0.75Q168.68 0.75 166.41-0.23 164.13-1.2 162.43-2.95L162.43-2.95 165.43-6.25Q168.23-3.8 171.13-3.8L171.13-3.8Q172.78-3.8 173.73-4.67 174.68-5.55 174.68-7.1L174.68-7.1Q174.68-8.25 174.28-8.97 173.88-9.7 172.88-10.33 171.88-10.95 169.88-11.7L169.88-11.7Q166.43-13.05 164.96-14.85 163.48-16.65 163.48-19.45L163.48-19.45Q163.48-22.8 165.86-24.98 168.23-27.15 172.23-27.15L172.23-27.15ZM197.13-27.15Q199.98-27.15 201.63-25.1 203.28-23.05 203.28-19.6L203.28-19.6 203.28 0 197.13 0 197.13-18.9Q197.13-20.8 196.6-21.63 196.08-22.45 195.08-22.45L195.08-22.45Q192.98-22.45 190.93-18.5L190.93-18.5 190.93 0 184.78 0 184.78-37 190.93-37.65 190.93-23.3Q192.18-25.25 193.65-26.2 195.13-27.15 197.13-27.15L197.13-27.15ZM225.73-6.4Q225.73-5.1 226.08-4.48 226.43-3.85 227.23-3.45L227.23-3.45 225.98 0.65Q223.93 0.4 222.7-0.45 221.48-1.3 220.88-3.05L220.88-3.05Q218.58 0.75 214.43 0.75L214.43 0.75Q211.13 0.75 209.18-1.48 207.23-3.7 207.23-7.4L207.23-7.4Q207.23-11.7 209.9-13.95 212.58-16.2 217.68-16.2L217.68-16.2 219.73-16.2 219.73-18.05Q219.73-20.55 218.85-21.58 217.98-22.6 216.03-22.6L216.03-22.6Q213.68-22.6 210.18-21.3L210.18-21.3 208.78-25.3Q210.78-26.2 212.93-26.68 215.08-27.15 217.03-27.15L217.03-27.15Q225.73-27.15 225.73-18.35L225.73-18.35 225.73-6.4ZM216.08-3.7Q218.48-3.7 219.73-7L219.73-7 219.73-12.55 218.28-12.55Q215.73-12.55 214.55-11.4 213.38-10.25 213.38-7.85L213.38-7.85Q213.38-5.8 214.08-4.75 214.78-3.7 216.08-3.7L216.08-3.7ZM243.17-27.1Q244.32-27.1 245.22-26.75L245.22-26.75 244.22-20.85Q243.22-21.1 242.37-21.1L242.37-21.1Q240.47-21.1 239.37-19.45 238.27-17.8 237.67-14.55L237.67-14.55 237.67 0 231.52 0 231.52-26.45 236.87-26.45 237.32-21.85Q239.17-27.1 243.17-27.1L243.17-27.1ZM248.07-26.45L254.22-26.45 254.22 0 248.07 0 248.07-26.45ZM251.12-39.65Q252.77-39.65 253.8-38.6 254.82-37.55 254.82-35.9L254.82-35.9Q254.82-34.3 253.8-33.25 252.77-32.2 251.12-32.2L251.12-32.2Q249.47-32.2 248.45-33.25 247.42-34.3 247.42-35.9L247.42-35.9Q247.42-37.55 248.45-38.6 249.47-39.65 251.12-39.65L251.12-39.65ZM272.27-27.15Q275.12-27.15 276.77-25.1 278.42-23.05 278.42-19.6L278.42-19.6 278.42 0 272.27 0 272.27-18.9Q272.27-20.8 271.74-21.63 271.22-22.45 270.22-22.45L270.22-22.45Q268.12-22.45 266.07-18.5L266.07-18.5 266.07 0 259.92 0 259.92-26.45 265.27-26.45 265.72-23Q267.07-25.1 268.59-26.13 270.12-27.15 272.27-27.15L272.27-27.15ZM301.92-29.85L303.47-25.1Q302.42-24.6 300.94-24.4 299.47-24.2 297.27-24.2L297.27-24.2Q299.37-23.2 300.39-21.53 301.42-19.85 301.42-17.4L301.42-17.4Q301.42-13.4 298.97-10.95 296.52-8.5 292.32-8.5L292.32-8.5Q291.07-8.5 289.77-8.9L289.77-8.9Q288.87-8.15 288.87-6.85L288.87-6.85Q288.87-5.85 289.42-5.35 289.97-4.85 291.47-4.85L291.47-4.85 294.27-4.85Q298.27-4.85 300.62-2.78 302.97-0.7 302.97 2.5L302.97 2.5Q302.97 6.3 300.04 8.58 297.12 10.85 291.72 10.85L291.72 10.85Q286.02 10.85 283.74 8.75 281.47 6.65 281.47 2.6L281.47 2.6 286.92 2.6Q286.92 4.75 287.92 5.65 288.92 6.55 291.77 6.55L291.77 6.55Q294.52 6.55 295.67 5.6 296.82 4.65 296.82 2.9L296.82 2.9Q296.82 1.2 295.87 0.4 294.92-0.4 292.92-0.4L292.92-0.4 291.02-0.4Q287.22-0.4 285.47-1.75 283.72-3.1 283.72-5.45L283.72-5.45Q283.72-6.8 284.44-8.03 285.17-9.25 286.42-10.2L286.42-10.2Q284.37-11.5 283.42-13.3 282.47-15.1 282.47-17.7L282.47-17.7Q282.47-22.05 285.07-24.58 287.67-27.1 292.07-27.1L292.07-27.1Q295.32-27.1 297.44-27.8 299.57-28.5 301.92-29.85L301.92-29.85ZM292.07-23Q290.32-23 289.42-21.75 288.52-20.5 288.52-17.8L288.52-17.8Q288.52-15.25 289.42-13.88 290.32-12.5 292.02-12.5L292.02-12.5Q293.77-12.5 294.62-13.73 295.47-14.95 295.47-17.85L295.47-17.85Q295.47-20.55 294.64-21.78 293.82-23 292.07-23L292.07-23ZM328.26-27.15Q332.16-27.15 334.16-23.58 336.16-20 336.16-13.3L336.16-13.3Q336.16-6.8 333.89-3.03 331.61 0.75 327.56 0.75L327.56 0.75Q324.36 0.75 322.21-2.1L322.21-2.1 322.21 10.15 316.06 10.85 316.06-26.45 321.51-26.45 321.76-23.25Q323.06-25.25 324.66-26.2 326.26-27.15 328.26-27.15L328.26-27.15ZM325.91-3.95Q327.81-3.95 328.81-6.13 329.81-8.3 329.81-13.25L329.81-13.25Q329.81-18.45 328.96-20.5 328.11-22.55 326.31-22.55L326.31-22.55Q324.01-22.55 322.21-19.25L322.21-19.25 322.21-6.45Q323.81-3.95 325.91-3.95L325.91-3.95ZM346.36 0.75Q343.66 0.75 342.08-0.93 340.51-2.6 340.51-5.4L340.51-5.4 340.51-37.05 346.66-37.7 346.66-5.65Q346.66-5 346.96-4.6 347.26-4.2 347.86-4.2L347.86-4.2Q348.21-4.2 348.53-4.3 348.86-4.4 348.96-4.4L348.96-4.4 350.16-0.2Q348.46 0.75 346.36 0.75L346.36 0.75ZM370.11-6.4Q370.11-5.1 370.46-4.48 370.81-3.85 371.61-3.45L371.61-3.45 370.36 0.65Q368.31 0.4 367.08-0.45 365.86-1.3 365.26-3.05L365.26-3.05Q362.96 0.75 358.81 0.75L358.81 0.75Q355.51 0.75 353.56-1.48 351.61-3.7 351.61-7.4L351.61-7.4Q351.61-11.7 354.28-13.95 356.96-16.2 362.06-16.2L362.06-16.2 364.11-16.2 364.11-18.05Q364.11-20.55 363.23-21.58 362.36-22.6 360.41-22.6L360.41-22.6Q358.06-22.6 354.56-21.3L354.56-21.3 353.16-25.3Q355.16-26.2 357.31-26.68 359.46-27.15 361.41-27.15L361.41-27.15Q370.11-27.15 370.11-18.35L370.11-18.35 370.11-6.4ZM360.46-3.7Q362.86-3.7 364.11-7L364.11-7 364.11-12.55 362.66-12.55Q360.11-12.55 358.93-11.4 357.76-10.25 357.76-7.85L357.76-7.85Q357.76-5.8 358.46-4.75 359.16-3.7 360.46-3.7L360.46-3.7ZM387.05-5L389.2-1.2Q386.75 0.75 383.45 0.75L383.45 0.75Q380 0.75 378.2-1.23 376.4-3.2 376.4-6.6L376.4-6.6 376.4-22 373.3-22 373.3-26.45 376.4-26.45 376.4-32.3 382.55-33.05 382.55-26.45 387.55-26.45 386.95-22 382.55-22 382.55-6.6Q382.55-4.2 384.6-4.2L384.6-4.2Q385.25-4.2 385.75-4.38 386.25-4.55 387.05-5L387.05-5ZM401.45-33.05Q400.05-33.05 399.38-32.3 398.7-31.55 398.7-30L398.7-30 398.7-26.45 403.75-26.45 403.05-22 398.7-22 398.7 0 392.55 0 392.55-22 389.25-22 389.25-26.45 392.55-26.45 392.55-29.8Q392.55-33.4 394.65-35.55 396.75-37.7 400.65-37.7L400.65-37.7Q403.7-37.7 406.55-36.2L406.55-36.2 404.85-32.2Q403.1-33.05 401.45-33.05L401.45-33.05ZM415.95-27.15Q420.95-27.15 423.72-23.65 426.5-20.15 426.5-13.25L426.5-13.25Q426.5-6.65 423.7-2.95 420.9 0.75 415.95 0.75L415.95 0.75Q411 0.75 408.2-2.88 405.4-6.5 405.4-13.25L405.4-13.25Q405.4-19.95 408.2-23.55 411-27.15 415.95-27.15L415.95-27.15ZM415.95-22.5Q413.8-22.5 412.8-20.38 411.8-18.25 411.8-13.25L411.8-13.25Q411.8-8.2 412.8-6.08 413.8-3.95 415.95-3.95L415.95-3.95Q418.1-3.95 419.1-6.08 420.1-8.2 420.1-13.25L420.1-13.25Q420.1-18.3 419.1-20.4 418.1-22.5 415.95-22.5L415.95-22.5ZM442.7-27.1Q443.85-27.1 444.75-26.75L444.75-26.75 443.75-20.85Q442.75-21.1 441.9-21.1L441.9-21.1Q440-21.1 438.9-19.45 437.8-17.8 437.2-14.55L437.2-14.55 437.2 0 431.05 0 431.05-26.45 436.4-26.45 436.85-21.85Q438.7-27.1 442.7-27.1L442.7-27.1ZM471.24-27.15Q473.89-27.15 475.49-25.1 477.09-23.05 477.09-19.6L477.09-19.6 477.09 0 471.04 0 471.04-18.95Q471.04-20.85 470.54-21.68 470.04-22.5 469.09-22.5L469.09-22.5Q467.14-22.5 465.34-18.8L465.34-18.8 465.34 0 459.34 0 459.34-18.95Q459.34-22.5 457.44-22.5L457.44-22.5Q455.39-22.5 453.64-18.8L453.64-18.8 453.64 0 447.59 0 447.59-26.45 452.94-26.45 453.34-23.05Q455.94-27.15 459.59-27.15L459.59-27.15Q461.44-27.15 462.79-26 464.14-24.85 464.84-22.75L464.84-22.75Q467.49-27.15 471.24-27.15L471.24-27.15Z" opacity="1" transform="matrix(1,0,0,1,0,0)" fill="#000000" class="slogan-text-1" data-fill-palette-color="secondary" id="text-1"></path></svg></g></svg></g></svg></g></svg></g></svg></g></svg></g><path d="M223.341 72.538L223.341 13.598 3.338 13.598 3.338 233.602 223.341 233.602 223.341 174.662 218.038 174.662 218.038 228.299 8.64 228.299 8.64 18.901 218.038 18.901 218.038 72.538Z" fill="#000000" stroke="transparent" data-fill-palette-color="tertiary"></path></svg></g><defs></defs></svg><rect width="395.52" height="247.2" fill="none" stroke="none" visibility="hidden"></rect></g></svg></g></svg>